<?xml version="1.0" encoding="UTF-8"?><svg id="Layer_1" xmlns="http://www.w3.org/2000/svg" viewBox="0 0 1000 252"><defs><style>.cls-1{fill:#1bbcbc;}.cls-1,.cls-2{stroke-width:0px;}.cls-2{fill:#fff;}</style></defs><path class="cls-2" d="m405.62,1.23c-5.09,0-9.24,4.15-9.24,9.24v42.23h-84.31V10.47c0-5.09-4.15-9.24-9.24-9.24s-9.24,4.15-9.24,9.24v102.5c0,5.09,4.15,9.24,9.24,9.24s9.24-4.15,9.24-9.24v-41.94h84.31v41.8c0,5.09,4.15,9.24,9.24,9.24s9.24-4.15,9.24-9.24V10.35c-.21-5.11-4.27-9.12-9.24-9.12Z"/><path class="cls-2" d="m771.87,19.71h71.28c5.09,0,9.24-4.15,9.24-9.24s-4.15-9.24-9.24-9.24h-71.28c-22.23,0-40.32,18.09-40.32,40.32v40.2c0,22.23,18.09,40.32,40.32,40.32h71.28c5.09,0,9.24-4.15,9.24-9.24s-4.15-9.24-9.24-9.24h-71.28c-12.12,0-21.98-9.86-21.98-21.98v-40.06c0-12.04,9.86-21.84,21.98-21.84Z"/><path class="cls-2" d="m886.49,19.71h102.5c5.09,0,9.24-4.15,9.24-9.24s-4.15-9.24-9.24-9.24h-102.5c-5.09,0-9.24,4.15-9.24,9.24s4.15,9.24,9.24,9.24Z"/><path class="cls-2" d="m886.49,71.18h102.5c5.09,0,9.24-4.15,9.24-9.36-.2-5.11-4.26-9.12-9.24-9.12h-102.5c-5.09,0-9.24,4.15-9.24,9.24s4.15,9.24,9.24,9.24Z"/><path class="cls-2" d="m988.99,103.74h-102.5c-5.09,0-9.24,4.15-9.24,9.24s4.15,9.24,9.24,9.24h102.5c5.09,0,9.24-4.15,9.24-9.24s-4.15-9.24-9.24-9.24Z"/><path class="cls-2" d="m697.45,1.23c-5.09,0-9.24,4.15-9.24,9.24v89.24c0,3.09-2.52,3.74-2.88,3.82-2.74.7-3.92-.69-4.59-1.8l-54.47-89.83c-5.24-8.5-15.22-12.48-24.83-9.86-9.67,2.62-16.16,11.22-16.16,21.4v89.53c0,5.09,4.15,9.24,9.24,9.24s9.24-4.15,9.24-9.24V23.45c0-2.61,1.82-3.34,2.6-3.54,1.9-.48,3.34.08,4.29,1.65l54.45,89.8c4.05,6.8,11.19,10.86,19.09,10.86,1.83,0,3.9-.28,6.08-.83,9.82-2.78,16.41-11.43,16.41-21.53V10.47c0-5.09-4.15-9.24-9.24-9.24Z"/><path class="cls-2" d="m520.1,1.23h-40.2c-22.23,0-40.32,18.09-40.32,40.32v71.28c0,5.09,4.15,9.24,9.24,9.24s9.24-4.15,9.24-9.24v-41.8h84.02v41.8c0,5.09,4.15,9.24,9.24,9.24s9.24-4.15,9.24-9.24V41.55c0-22.23-18.15-40.32-40.46-40.32Zm22.12,40.46v11h-84.17v-11c0-12.12,9.86-21.98,21.98-21.98h40.2c12.12,0,21.98,9.86,21.98,21.98Z"/><path class="cls-2" d="m259.64,1.23c-5.09,0-9.24,4.15-9.24,9.24v89.24c0,3.09-2.52,3.74-2.89,3.82-2.72.7-3.92-.69-4.58-1.8L188.46,11.91c-5.23-8.51-15.21-12.48-24.83-9.87-9.67,2.62-16.16,11.22-16.16,21.4v89.53c0,5.09,4.15,9.24,9.24,9.24s9.24-4.15,9.24-9.24V23.45c0-2.61,1.82-3.34,2.6-3.54,1.89-.48,3.34.08,4.29,1.65l54.45,89.8c4.05,6.8,11.18,10.86,19.09,10.86,1.83,0,3.9-.28,6.08-.83,9.82-2.78,16.42-11.43,16.42-21.53V10.47c0-5.09-4.15-9.24-9.24-9.24Z"/><path class="cls-2" d="m113.51,52.84H11.01c-5.09,0-9.24,4.15-9.24,9.24s4.15,9.24,9.24,9.24h102.5c5.09,0,9.24-4.15,9.24-9.36-.2-5.11-4.26-9.12-9.24-9.12Z"/><path class="cls-2" d="m113.51,103.88H11.01c-5.09,0-9.24,4.15-9.24,9.24s4.15,9.24,9.24,9.24h102.5c5.09,0,9.24-4.15,9.24-9.36-.21-5.11-4.27-9.12-9.24-9.12Z"/><path class="cls-2" d="m113.51,1.38H11.01C5.91,1.38,1.77,5.52,1.77,10.62s4.15,9.24,9.24,9.24h102.5c5.09,0,9.24-4.15,9.24-9.24s-4.15-9.24-9.24-9.24Z"/><path class="cls-1" d="m550.94,202.08H11.01c-5.09,0-9.24,4.15-9.24,9.24s4.15,9.24,9.24,9.24h539.94c5.09,0,9.24-4.15,9.24-9.36-.2-5.11-4.26-9.12-9.24-9.12Z"/><path class="cls-1" d="m626.71,202.73v46.46h-11.73v-46.46h-11.61v-9.36h11.61v-4.85c0-11.39,5.75-20.52,19.4-20.52,6.65,0,12.18,2.59,15.11,4.62l-2.93,9.92c-2.37-1.92-6.2-4.17-10.94-4.17-6.43,0-8.91,4.06-8.91,10.15v4.85h19.96v9.36h-19.96Z"/><path class="cls-1" d="m666.62,167.1c4.17,0,6.99,1.69,6.99,6.31s-2.82,6.43-6.99,6.43-7.22-1.69-7.22-6.43,2.93-6.31,7.22-6.31Zm-5.98,23.12h11.73v58.97h-11.73v-58.97Z"/><path class="cls-1" d="m709.58,175.22v15h23v9.25h-23v29.32c0,7.67,3.38,11.28,9.47,11.28,4.51,0,9.81-2.14,13.08-4.51l3.83,9.13c-5.3,3.27-12.29,5.64-20.41,5.64-10.94,0-17.7-6.65-17.7-19.28v-31.57h-11.05v-9.25h11.05l1.35-15h10.38Z"/><path class="cls-1" d="m760.32,190.21v9.13c4.4-6.2,11.62-10.15,21.09-10.15,16.01,0,23,11.39,23,26.05v33.94h-11.73v-32.14c0-10.04-4.62-17.03-15-17.03-9.36,0-15.22,6.31-17.37,12.74v36.42h-11.73v-58.97h11.73Z"/><path class="cls-1" d="m876.58,242.76c-6.09,4.96-14.55,8.01-24.47,8.01-22.21,0-31.91-13.76-31.91-30.9s11.95-31.24,30.9-31.24c17.93,0,26.27,11.05,26.27,24.58,0,3.5-.56,8.23-1.24,10.38h-43.87c1.13,10.26,7.33,17.25,20.18,17.25,8.12,0,15-3.16,19.51-6.54l4.62,8.46Zm-10.49-31.46c0-6.77-4.62-12.86-15.22-12.86s-17.48,7.44-18.38,16.01h33.38c.11-.9.23-2.14.23-3.16Z"/><path class="cls-1" d="m932.62,203.63c-4.96-2.48-12.07-4.51-18.49-4.51-7.33,0-11.5,2.59-11.5,7.67,0,4.06,2.37,4.96,8.57,6.54l9.7,2.37c11.95,2.82,16.92,8.12,16.92,16.46,0,10.94-9.58,18.16-24.47,18.16-10.04,0-17.93-2.82-22.33-5.07l2.25-10.15c4.85,2.59,11.95,5.41,19.62,5.41s13.08-2.71,13.08-7.55c0-3.61-3.5-5.64-9.47-7.1l-9.25-2.25c-11.28-2.71-16.24-7.1-16.24-15.9,0-11.05,8.46-18.49,24.02-18.49,7.55,0,16.24,2.14,20.75,4.28l-3.16,10.15Z"/><path class="cls-1" d="m992.61,203.63c-4.96-2.48-12.07-4.51-18.49-4.51-7.33,0-11.5,2.59-11.5,7.67,0,4.06,2.37,4.96,8.57,6.54l9.7,2.37c11.95,2.82,16.92,8.12,16.92,16.46,0,10.94-9.58,18.16-24.47,18.16-10.04,0-17.93-2.82-22.33-5.07l2.25-10.15c4.85,2.59,11.95,5.41,19.62,5.41s13.08-2.71,13.08-7.55c0-3.61-3.5-5.64-9.47-7.1l-9.25-2.25c-11.28-2.71-16.24-7.1-16.24-15.9,0-11.05,8.46-18.49,24.02-18.49,7.55,0,16.24,2.14,20.75,4.28l-3.16,10.15Z"/></svg>